<svg width="28" height="28" viewBox="0 0 28 28" fill="none" xmlns="http://www.w3.org/2000/svg">
<path d="M23.3005 6.78637L22.6089 7.07648L23.3005 6.78637ZM22.6985 7.29009C22.8587 7.67206 23.2982 7.85182 23.6802 7.6916C24.0622 7.53138 24.2419 7.09185 24.0817 6.70987L22.6985 7.29009ZM19.5286 2.22029C19.144 2.06645 18.7075 2.25352 18.5537 2.6381C18.3998 3.02269 18.5869 3.45917 18.9715 3.613L19.5286 2.22029ZM19.4451 2.99468L19.1666 3.69104V3.69104L19.4451 2.99468ZM4.75629 6.78637L5.44791 7.07648L4.75629 6.78637ZM3.97507 6.70987C3.81485 7.09185 3.99461 7.53138 4.37658 7.6916C4.75855 7.85182 5.19809 7.67206 5.35831 7.29009L3.97507 6.70987ZM9.08532 3.613C9.4699 3.45917 9.65697 3.02269 9.50313 2.6381C9.3493 2.25352 8.91282 2.06645 8.52823 2.22029L9.08532 3.613ZM8.61168 2.99468L8.33313 2.29833L8.33313 2.29833L8.61168 2.99468ZM21.2795 10.471L20.5343 10.5556L21.2795 10.471ZM21.8012 15.0678L22.5464 14.9832L21.8012 15.0678ZM6.19884 15.0678L5.45363 14.9832L6.19884 15.0678ZM6.72056 10.471L7.46578 10.5556L6.72056 10.471ZM5.1891 17.3508L4.618 16.8646H4.618L5.1891 17.3508ZM22.8109 17.3508L22.2398 17.8369V17.8369L22.8109 17.3508ZM16.6483 5.10258H15.8983C15.8983 5.42317 16.1021 5.7083 16.4053 5.81215L16.6483 5.10258ZM11.3518 5.10258L11.5947 5.81215C11.898 5.7083 12.1018 5.42317 12.1018 5.10258H11.3518ZM18.2023 23.5965C18.3477 23.2086 18.1511 22.7764 17.7632 22.631C17.3754 22.4856 16.9431 22.6822 16.7977 23.0701L18.2023 23.5965ZM11.2023 23.0701C11.057 22.6822 10.6247 22.4856 10.2368 22.631C9.84895 22.7764 9.65236 23.2086 9.79772 23.5965L11.2023 23.0701ZM22.6089 7.07648L22.6985 7.29009L24.0817 6.70987L23.9921 6.49626L22.6089 7.07648ZM18.9715 3.613L19.1666 3.69104L19.7237 2.29833L19.5286 2.22029L18.9715 3.613ZM23.9921 6.49626C23.189 4.58169 21.6513 3.0694 19.7237 2.29833L19.1666 3.69104C20.7212 4.31288 21.9612 5.53247 22.6089 7.07648L23.9921 6.49626ZM4.06467 6.49626L3.97507 6.70987L5.35831 7.29009L5.44791 7.07648L4.06467 6.49626ZM8.52823 2.22029L8.33313 2.29833L8.89022 3.69104L9.08532 3.613L8.52823 2.22029ZM5.44791 7.07648C6.09555 5.53247 7.33564 4.31288 8.89022 3.69104L8.33313 2.29833C6.40545 3.0694 4.86775 4.58169 4.06467 6.49626L5.44791 7.07648ZM20.7401 20.25H7.25997V21.75H20.7401V20.25ZM20.5343 10.5556L21.056 15.1524L22.5464 14.9832L22.0247 10.3864L20.5343 10.5556ZM6.94406 15.1524L7.46578 10.5556L5.97535 10.3865L5.45363 14.9832L6.94406 15.1524ZM5.76021 17.8369C6.41847 17.0636 6.83242 16.1359 6.94406 15.1524L5.45363 14.9832C5.37733 15.6554 5.09293 16.3067 4.618 16.8646L5.76021 17.8369ZM21.056 15.1524C21.1676 16.1359 21.5816 17.0636 22.2398 17.8369L23.382 16.8646C22.9071 16.3067 22.6227 15.6554 22.5464 14.9832L21.056 15.1524ZM7.25997 20.25C6.45257 20.25 5.86955 19.8494 5.59696 19.3691C5.33177 18.9017 5.33704 18.3341 5.76021 17.8369L4.618 16.8646C3.76131 17.8711 3.73545 19.128 4.29238 20.1094C4.84192 21.0777 5.93426 21.75 7.25997 21.75V20.25ZM20.7401 21.75C22.0658 21.75 23.1581 21.0777 23.7077 20.1094C24.2646 19.128 24.2387 17.8711 23.382 16.8646L22.2398 17.8369C22.663 18.3341 22.6683 18.9017 22.4031 19.3691C22.1305 19.8494 21.5475 20.25 20.7401 20.25V21.75ZM17.3983 5.10258V4.98158H15.8983V5.10258H17.3983ZM22.0247 10.3864C21.7053 7.57201 19.616 5.32594 16.8912 4.39302L16.4053 5.81215C18.6795 6.5908 20.2911 8.41276 20.5343 10.5556L22.0247 10.3864ZM12.1018 5.10258V4.98158H10.6018V5.10258H12.1018ZM7.46578 10.5556C7.70899 8.41276 9.3205 6.5908 11.5947 5.81215L11.1088 4.39302C8.38407 5.32594 6.29478 7.57201 5.97535 10.3865L7.46578 10.5556ZM14 3.08331C15.0484 3.08331 15.8983 3.9332 15.8983 4.98158H17.3983C17.3983 3.10477 15.8768 1.58331 14 1.58331V3.08331ZM14 1.58331C12.1232 1.58331 10.6018 3.10477 10.6018 4.98158H12.1018C12.1018 3.9332 12.9516 3.08331 14 3.08331V1.58331ZM16.7977 23.0701C16.4022 24.1254 15.3154 24.9166 14 24.9166V26.4166C15.9163 26.4166 17.5789 25.26 18.2023 23.5965L16.7977 23.0701ZM14 24.9166C12.6846 24.9166 11.5978 24.1254 11.2023 23.0701L9.79772 23.5965C10.4212 25.26 12.0837 26.4166 14 26.4166V24.9166Z" fill="#F44563"/>
</svg>
