<svg width="27" height="28" viewBox="0 0 27 28" fill="none" xmlns="http://www.w3.org/2000/svg">
<path d="M22.8906 13.9688H13.5938V4.67188C13.5938 3.875 13.0625 3.34375 12.2656 3.34375C5.625 3.34375 0.3125 8.65625 0.3125 15.2969C0.3125 21.9375 5.625 27.25 12.2656 27.25C18.9062 27.25 24.2188 21.9375 24.2188 15.2969C24.2188 14.5 23.6875 13.9688 22.8906 13.9688ZM13.5938 24.4609C8.54688 25.2578 3.76562 21.6719 3.10156 16.625C2.30469 11.5781 5.89062 6.79688 10.9375 6.13281V15.2969C10.9375 16.0938 11.4688 16.625 12.2656 16.625H21.4297C20.8984 20.7422 17.7109 23.9297 13.5938 24.4609ZM17.5781 0.6875C16.7812 0.6875 16.25 1.21875 16.25 2.01562V9.98438C16.25 10.7812 16.7812 11.3125 17.5781 11.3125H25.5469C26.3438 11.3125 26.875 10.7812 26.875 9.98438C26.875 4.80469 22.7578 0.6875 17.5781 0.6875ZM18.9062 8.65625V3.47656C21.5625 4.00781 23.5547 6 24.0859 8.65625H18.9062Z" fill="white"/>
</svg>
