<svg width="28" height="28" viewBox="0 0 28 28" fill="none" xmlns="http://www.w3.org/2000/svg">
<path d="M18.6667 6.99998H19.8333C21.122 6.99998 22.1667 8.04465 22.1667 9.33331V14.5833M5.83333 15.1666V18.6666C5.83333 19.9553 6.878 21 8.16667 21H9.33333M15.1667 6.41665V9.33331C15.1667 10.622 14.122 11.6666 12.8333 11.6666H5.83333C4.54467 11.6666 3.5 10.622 3.5 9.33331V4.66665C3.5 3.37798 4.54467 2.33331 5.83333 2.33331H7.38889C7.89375 2.33331 8.385 2.49706 8.78889 2.79998L9.87778 3.61665C10.2817 3.91956 10.7729 4.08331 11.2778 4.08331H12.8333C14.122 4.08331 15.1667 5.12798 15.1667 6.41665ZM24.5 20.4166V23.3333C24.5 24.622 23.4553 25.6666 22.1667 25.6666H15.1667C13.878 25.6666 12.8333 24.622 12.8333 23.3333V18.6666C12.8333 17.378 13.878 16.3333 15.1667 16.3333H16.7222C17.2271 16.3333 17.7183 16.4971 18.1222 16.8L19.2111 17.6166C19.615 17.9196 20.1062 18.0833 20.6111 18.0833H22.1667C23.4553 18.0833 24.5 19.128 24.5 20.4166Z" stroke="#7B66FF" stroke-width="1.5" stroke-linecap="round" stroke-linejoin="round"/>
</svg>
