<svg width="13" height="10" viewBox="0 0 13 10" fill="none" xmlns="http://www.w3.org/2000/svg">
<path d="M12.2675 0.55758C12.1872 0.476673 12.0918 0.412456 11.9866 0.368632C11.8814 0.324808 11.7686 0.302246 11.6546 0.302246C11.5407 0.302246 11.4278 0.324808 11.3227 0.368632C11.2175 0.412456 11.122 0.476673 11.0417 0.55758L4.61089 6.99707L1.90906 4.28662C1.82574 4.20613 1.72739 4.14285 1.61962 4.10037C1.51184 4.0579 1.39675 4.03707 1.28093 4.03908C1.1651 4.04108 1.05081 4.06588 0.944566 4.11205C0.838325 4.15823 0.742218 4.22488 0.661735 4.3082C0.581251 4.39151 0.517966 4.48987 0.475493 4.59764C0.43302 4.70542 0.412191 4.8205 0.414194 4.93633C0.416198 5.05215 0.440996 5.16645 0.487172 5.27269C0.533348 5.37893 0.599997 5.47504 0.683315 5.55552L3.99801 8.87022C4.07826 8.95113 4.17373 9.01535 4.27892 9.05917C4.38411 9.10299 4.49693 9.12556 4.61089 9.12556C4.72484 9.12556 4.83767 9.10299 4.94285 9.05917C5.04804 9.01535 5.14351 8.95113 5.22376 8.87022L12.2675 1.82649C12.3551 1.74566 12.425 1.64755 12.4729 1.53836C12.5207 1.42916 12.5454 1.31124 12.5454 1.19203C12.5454 1.07282 12.5207 0.954906 12.4729 0.845712C12.425 0.736517 12.3551 0.638412 12.2675 0.55758V0.55758Z" fill="white"/>
</svg>
