<svg width="27" height="27" viewBox="0 0 27 27" fill="none" xmlns="http://www.w3.org/2000/svg">
<path d="M25.4526 0.4375H1.57645C1.22465 0.4375 0.887266 0.577427 0.638508 0.826499C0.389751 1.07557 0.25 1.41338 0.25 1.76562V25.6719C0.25 26.0241 0.389751 26.3619 0.638508 26.611C0.887266 26.8601 1.22465 27 1.57645 27H25.4526C25.8044 27 26.1418 26.8601 26.3905 26.611C26.6393 26.3619 26.779 26.0241 26.779 25.6719V1.76562C26.779 1.41338 26.6393 1.07557 26.3905 0.826499C26.1418 0.577427 25.8044 0.4375 25.4526 0.4375ZM8.20871 24.3438H2.9029V3.09375H8.20871V24.3438ZM24.1261 24.3438H10.8616V15.0469H24.1261V24.3438ZM24.1261 12.3906H10.8616V3.09375H24.1261V12.3906Z" fill="white"/>
</svg>
